# xmcd
#
# Track frame offsets: 
#        150
#        24019
#        40588
#        58466
#        85288
#        103417
#        122549
#        135356
#        166247
#        184097
#        220811
#
# Disc length: 3216 seconds
#
# Revision: 0
# Processed by: cddbd v1.5.2PL0 Copyright (c) Steve Scherf et al.
# Submitted via: ExactAudioCopy v1.0b3
#
DISCID=8e0c8e0b
DTITLE=Jeff Grand - Therapy
DYEAR=1900
DGENRE=Blues
TTITLE0=24 Hours
TTITLE1=We Get Down
TTITLE2=Don't Get Lost In The Wind
TTITLE3=Losin' Blues
TTITLE4=Travelin' Down South
TTITLE5=When I Lost My Baby
TTITLE6=Little Martha
TTITLE7=Long Distance Call
TTITLE8=Rollin' and Tumblin'
TTITLE9=When I Met You
TTITLE10=Early Morning Blues
EXTD=
EXTT0=
EXTT1=
EXTT2=
EXTT3=
EXTT4=
EXTT5=
EXTT6=
EXTT7=
EXTT8=
EXTT9=
EXTT10=
PLAYORDER=
